<?xml version="1.0" encoding="utf-8"?>
<!-- Generator: Adobe Illustrator 16.2.0, SVG Export Plug-In . SVG Version: 6.00 Build 0)  -->
<!DOCTYPE svg PUBLIC "-//W3C//DTD SVG 1.1//EN" "http://www.w3.org/Graphics/SVG/1.1/DTD/svg11.dtd">
<svg version="1.1" id="Layer_1" xmlns="http://www.w3.org/2000/svg" xmlns:xlink="http://www.w3.org/1999/xlink" x="0px" y="0px"
	 width="51.333px" height="32px" viewBox="0 0 51.333 32" enable-background="new 0 0 51.333 32" xml:space="preserve">
<g>
	<path fill="#65318F" d="M-39.388-63.573c0.318-8.283,6.717-15,15-15s15,6.711,15,15c0,8.285-6.717,15-15,15
		S-39.722-54.907-39.388-63.573z"/>
	<polygon fill="#65318F" points="-31.585,-50.256 -58.72,-63.528 -31.566,-76.754 	"/>
	<circle fill="#FFFFFF" cx="-24.33" cy="-63.649" r="10.5"/>
</g>
<g>
	<g>
		<path fill="#F69322" d="M20.659,16.49c0.318-8.283,6.717-15,15-15s15,6.711,15,15c0,8.285-6.717,15-15,15
			S20.325,25.156,20.659,16.49z"/>
		<polygon fill="#F69322" points="28.461,29.806 1.327,16.535 28.481,3.308 		"/>
	</g>
	<circle fill="#FFFFFF" cx="35.717" cy="16.414" r="10.5"/>
</g>
</svg>
